<?xml version="1.0" encoding="utf-8"?>
<!-- Generator: Adobe Illustrator 26.0.1, SVG Export Plug-In . SVG Version: 6.00 Build 0)  -->
<svg version="1.1" id="Слой_1" xmlns="http://www.w3.org/2000/svg" xmlns:xlink="http://www.w3.org/1999/xlink" x="0px" y="0px"
	 viewBox="0 0 218.3 35" style="enable-background:new 0 0 218.3 35;" xml:space="preserve">
<style type="text/css">
	.st0{fill-rule:evenodd;clip-rule:evenodd;fill:#FFFFFF;}
	.st1{fill:#FFFFFF;}
</style>
<g>
	<path class="st0" d="M17.5,35C27.2,35,35,27.2,35,17.5S27.2,0,17.5,0C7.8,0,0,7.8,0,17.5S7.8,35,17.5,35z M24.7,16.1l-13.2-3.5
		l3.5,13.2L24.7,16.1z"/>
	<g>
		<path class="st1" d="M64.7,4.5V27h-6.3l0-15.2L55.9,27h-4.5l-2.6-14.8l0,14.8h-6.3V4.5h9.3c0.3,1.4,0.6,2.9,0.9,4.8l1,5.7
			l1.7-10.5H64.7z"/>
		<path class="st1" d="M82.9,15v4.5c0,1.7-0.1,2.9-0.3,3.6c-0.2,0.8-0.6,1.5-1.3,2.2c-0.7,0.7-1.5,1.2-2.6,1.5
			c-1.1,0.3-2.3,0.5-3.6,0.5c-1.5,0-2.8-0.1-3.9-0.4c-1.1-0.3-1.9-0.7-2.5-1.2c-0.6-0.6-1-1.2-1.3-2c-0.3-0.8-0.4-2-0.4-3.5v-4.7
			c0-1.7,0.2-3.1,0.7-4c0.5-1,1.3-1.7,2.5-2.3c1.2-0.6,2.7-0.9,4.5-0.9c1.5,0,2.9,0.2,4,0.6c1.1,0.4,2,0.9,2.6,1.5
			c0.6,0.6,1,1.2,1.2,1.9C82.8,12.7,82.9,13.7,82.9,15z M76.1,13.6c0-0.9-0.1-1.5-0.2-1.8c-0.1-0.2-0.4-0.4-0.8-0.4
			c-0.4,0-0.7,0.1-0.8,0.4c-0.1,0.2-0.2,0.8-0.2,1.8v8.3c0,0.9,0.1,1.4,0.2,1.7c0.1,0.3,0.4,0.4,0.8,0.4c0.4,0,0.7-0.1,0.8-0.4
			c0.1-0.2,0.2-0.8,0.2-1.6V13.6z"/>
		<path class="st1" d="M99.5,8.5L96.3,27h-9L83.8,8.5h6.2L91.9,22c0.2-1,0.4-3.4,0.8-7.2c0.2-2.1,0.4-4.2,0.7-6.2H99.5z"/>
		<path class="st1" d="M107.6,4.5v2.9h-7.1V4.5H107.6z M107.6,8.5V27h-7.1V8.5H107.6z"/>
		<path class="st1" d="M125.7,18.1h-8.9v4c0,0.8,0.1,1.4,0.2,1.6c0.1,0.2,0.4,0.4,0.9,0.4c0.5,0,0.9-0.2,1-0.5
			c0.2-0.3,0.3-0.9,0.3-1.9v-2.4h6.5v1.4c0,1.1-0.1,2-0.3,2.6c-0.2,0.6-0.6,1.3-1.2,2c-0.6,0.7-1.5,1.2-2.5,1.6
			c-1,0.3-2.2,0.5-3.7,0.5c-1.5,0-2.7-0.2-3.9-0.5c-1.1-0.3-2-0.8-2.6-1.4c-0.6-0.6-1-1.3-1.3-2c-0.2-0.7-0.4-1.8-0.4-3.1v-5.4
			c0-1.6,0.3-2.9,0.8-3.8c0.5-0.9,1.4-1.6,2.6-2.1c1.2-0.5,2.6-0.7,4.2-0.7c1.9,0,3.5,0.3,4.8,0.9c1.3,0.6,2.1,1.4,2.6,2.4
			c0.5,1,0.8,2.4,0.8,4.2V18.1z M118.7,15.1v-1.3c0-1-0.1-1.6-0.2-1.8c-0.1-0.3-0.4-0.4-0.8-0.4c-0.5,0-0.8,0.1-0.9,0.4
			c-0.1,0.2-0.2,0.9-0.2,1.9v1.3H118.7z"/>
		<path class="st1" d="M144.5,17.7c0,2.3-0.1,3.9-0.2,4.8c-0.1,0.9-0.5,1.8-1.2,2.6c-0.7,0.8-1.6,1.4-2.8,1.8
			c-1.2,0.4-2.5,0.6-4.1,0.6c-1.5,0-2.8-0.2-4-0.6c-1.2-0.4-2.1-1-2.8-1.8c-0.7-0.8-1.1-1.6-1.3-2.6c-0.1-0.9-0.2-2.5-0.2-4.9v-3.8
			c0-2.3,0.1-3.9,0.2-4.8c0.1-0.9,0.5-1.8,1.2-2.6c0.7-0.8,1.6-1.4,2.8-1.8c1.2-0.4,2.5-0.6,4.1-0.6c1.5,0,2.8,0.2,4,0.6
			c1.2,0.4,2.1,1,2.8,1.8s1.1,1.6,1.3,2.6c0.1,0.9,0.2,2.5,0.2,4.9V17.7z M137.3,10.3c0-1-0.1-1.7-0.2-2c-0.1-0.3-0.4-0.4-0.9-0.4
			c-0.4,0-0.7,0.1-0.9,0.4c-0.2,0.2-0.3,0.9-0.3,2.1v10.5c0,1.3,0.1,2.1,0.2,2.4c0.1,0.3,0.4,0.5,0.9,0.5c0.5,0,0.8-0.2,0.9-0.5
			c0.1-0.4,0.2-1.2,0.2-2.5V10.3z"/>
		<path class="st1" d="M154,8.5l-0.1,1.7c0.5-0.7,1.1-1.2,1.8-1.5c0.7-0.3,1.6-0.5,2.5-0.5c1.2,0,2.1,0.2,2.9,0.7
			c0.8,0.5,1.2,1,1.4,1.7c0.2,0.7,0.3,1.8,0.3,3.5V27H156V14.2c0-1.3-0.1-2-0.2-2.3c-0.1-0.3-0.4-0.4-0.9-0.4
			c-0.5,0-0.8,0.2-0.9,0.5c-0.1,0.3-0.2,1.2-0.2,2.6V27H147V8.5H154z"/>
		<path class="st1" d="M172.3,4.5V27h-7.1V4.5H172.3z"/>
		<path class="st1" d="M181.9,4.5v2.9h-7.1V4.5H181.9z M181.9,8.5V27h-7.1V8.5H181.9z"/>
		<path class="st1" d="M191.4,8.5l-0.1,1.7c0.5-0.7,1.1-1.2,1.8-1.5c0.7-0.3,1.6-0.5,2.5-0.5c1.2,0,2.1,0.2,2.9,0.7
			c0.8,0.5,1.2,1,1.4,1.7c0.2,0.7,0.3,1.8,0.3,3.5V27h-6.9V14.2c0-1.3-0.1-2-0.2-2.3c-0.1-0.3-0.4-0.4-0.9-0.4
			c-0.5,0-0.8,0.2-0.9,0.5c-0.1,0.3-0.2,1.2-0.2,2.6V27h-6.9V8.5H191.4z"/>
		<path class="st1" d="M218.3,18.1h-8.9v4c0,0.8,0.1,1.4,0.2,1.6c0.1,0.2,0.4,0.4,0.9,0.4c0.5,0,0.9-0.2,1-0.5
			c0.2-0.3,0.3-0.9,0.3-1.9v-2.4h6.5v1.4c0,1.1-0.1,2-0.3,2.6c-0.2,0.6-0.6,1.3-1.2,2c-0.6,0.7-1.5,1.2-2.5,1.6
			c-1,0.3-2.2,0.5-3.7,0.5c-1.5,0-2.7-0.2-3.9-0.5c-1.1-0.3-2-0.8-2.6-1.4c-0.6-0.6-1-1.3-1.3-2c-0.2-0.7-0.4-1.8-0.4-3.1v-5.4
			c0-1.6,0.3-2.9,0.8-3.8c0.5-0.9,1.4-1.6,2.6-2.1c1.2-0.5,2.6-0.7,4.2-0.7c1.9,0,3.5,0.3,4.8,0.9c1.3,0.6,2.1,1.4,2.6,2.4
			c0.5,1,0.8,2.4,0.8,4.2V18.1z M211.3,15.1v-1.3c0-1-0.1-1.6-0.2-1.8c-0.1-0.3-0.4-0.4-0.8-0.4c-0.5,0-0.8,0.1-0.9,0.4
			c-0.1,0.2-0.2,0.9-0.2,1.9v1.3H211.3z"/>
	</g>
</g>
</svg>
